<svg width="78" height="72" viewBox="0 0 78 72" fill="none" xmlns="http://www.w3.org/2000/svg">
<path d="M39 11.5875V67.8375M23.0625 22.8375H14.625M25.875 34.0875H14.625M76.5 53.775V8.51248C76.5 4.01248 72.825 0.674976 68.3625 1.04998H68.1375C60.2625 1.72498 48.3 5.73748 41.625 9.93748L40.9875 10.35C39.9 11.025 38.1 11.025 37.0125 10.35L36.075 9.78748C29.4 5.62498 17.475 1.64998 9.6 1.01248C5.1375 0.637476 1.5 4.01247 1.5 8.47497V53.775C1.5 57.375 4.425 60.75 8.025 61.2L9.1125 61.35C17.25 62.4375 29.8125 66.5625 37.0125 70.5L37.1625 70.575C38.175 71.1375 39.7875 71.1375 40.7625 70.575C47.9625 66.6 60.5625 62.4375 68.7375 61.35L69.975 61.2C73.575 60.75 76.5 57.375 76.5 53.775V53.775Z" stroke="black" stroke-width="1.5" stroke-linecap="round" stroke-linejoin="round"/>
</svg>
