<svg width="629" height="753" viewBox="0 0 629 753" fill="none" xmlns="http://www.w3.org/2000/svg">
<path d="M598.959 636.65C598.979 636.302 599.036 636.05 599.131 635.894C599.234 635.74 599.38 635.668 599.569 635.679L614.737 636.557L615.017 631.723C615.028 631.544 615.096 631.42 615.223 631.352C615.35 631.283 615.541 631.257 615.795 631.271L616.205 631.295C616.469 631.31 616.655 631.359 616.764 631.441C616.882 631.523 616.936 631.654 616.926 631.833L616.242 643.623C616.232 643.802 616.163 643.926 616.037 643.994C615.919 644.063 615.728 644.09 615.465 644.074L615.055 644.051C614.8 644.036 614.614 643.987 614.496 643.905C614.378 643.822 614.324 643.692 614.334 643.513L614.608 638.777L599.44 637.898C599.072 637.877 598.908 637.527 598.948 636.848L598.959 636.65Z" fill="black"/>
<path d="M597.754 646.647C597.808 646.388 597.907 646.211 598.052 646.116C598.197 646.02 598.394 645.999 598.644 646.05L614.425 649.311C614.684 649.364 614.856 649.463 614.942 649.606C615.038 649.751 615.059 649.953 615.005 650.211L613.229 658.809C613.192 658.985 613.111 659.098 612.985 659.149C612.857 659.209 612.659 659.212 612.391 659.157L611.988 659.073C611.739 659.022 611.562 658.942 611.459 658.834C611.355 658.735 611.32 658.598 611.357 658.422L612.838 651.253L607.222 650.093L605.892 656.527C605.856 656.703 605.77 656.815 605.635 656.864C605.497 656.922 605.299 656.925 605.04 656.871L604.666 656.794C604.407 656.741 604.226 656.66 604.123 656.552C604.027 656.455 603.998 656.319 604.034 656.143L605.363 649.709L599.331 648.462L597.844 655.659C597.808 655.835 597.722 655.947 597.587 655.996C597.458 656.057 597.265 656.06 597.006 656.007L596.604 655.924C596.354 655.872 596.178 655.792 596.075 655.684C595.97 655.585 595.936 655.448 595.972 655.273L597.754 646.647Z" fill="black"/>
<path d="M594.143 660.44C594.274 660.106 594.408 659.88 594.546 659.762C594.693 659.647 594.854 659.624 595.029 659.693L610.491 665.76C610.843 665.898 610.894 666.284 610.646 666.916L610.455 667.404C610.358 667.65 610.247 667.83 610.122 667.943C609.993 668.065 609.827 668.151 609.624 668.204L595.389 671.258L593.797 671.439L606.332 676.358C606.684 676.496 606.739 676.873 606.498 677.488L606.425 677.672C606.184 678.288 605.887 678.526 605.536 678.388L590.074 672.321C589.898 672.252 589.796 672.125 589.766 671.941C589.746 671.761 589.798 671.512 589.922 671.196L590.108 670.722C590.194 670.502 590.29 670.336 590.394 670.225C590.499 670.114 590.622 670.046 590.763 670.02L605.447 666.869L606.908 666.712L594.228 661.736C593.885 661.601 593.836 661.222 594.081 660.598L594.143 660.44Z" fill="black"/>
<path d="M586.337 677.383C586.481 677.161 586.637 677.032 586.807 676.995C586.977 676.959 587.168 677.01 587.382 677.148L600.914 685.898C601.136 686.042 601.261 686.196 601.29 686.36C601.326 686.53 601.273 686.726 601.129 686.948L598.369 691.217C597.087 693.198 595.476 694.404 593.533 694.835C591.591 695.265 589.332 694.648 586.756 692.982C584.164 691.306 582.665 689.494 582.261 687.546C581.857 685.598 582.295 683.633 583.577 681.652L586.337 677.383ZM585.274 682.547C584.352 683.974 584.072 685.423 584.436 686.895C584.807 688.372 585.996 689.759 588.001 691.055C589.349 691.927 590.584 692.433 591.707 692.575C592.837 692.721 593.828 692.563 594.677 692.101C595.535 691.644 596.261 690.955 596.856 690.036L598.732 687.134L587.15 679.646L585.274 682.547Z" fill="black"/>
<path d="M573.759 693.771C574.384 693.089 575.041 692.519 575.729 692.061C576.418 691.617 577.029 691.313 577.563 691.15C578.098 690.999 578.452 691.004 578.626 691.163C578.724 691.253 578.817 691.409 578.907 691.632C578.991 691.862 579.047 692.087 579.077 692.306C579.107 692.525 579.093 692.666 579.035 692.729C578.984 692.785 578.817 692.855 578.534 692.941C577.915 693.169 577.339 693.428 576.804 693.718C576.268 694.009 575.723 694.457 575.168 695.063C574.735 695.536 574.439 696.04 574.282 696.574C574.125 697.109 574.118 697.627 574.26 698.129C574.403 698.644 574.69 699.099 575.121 699.494C575.581 699.915 576.075 700.138 576.604 700.161C577.133 700.198 577.647 700.119 578.147 699.924C578.646 699.741 579.335 699.438 580.212 699.012C581.153 698.543 581.937 698.205 582.563 697.997C583.189 697.803 583.869 697.766 584.602 697.888C585.33 698.017 586.072 698.429 586.831 699.124C587.492 699.73 587.928 700.442 588.137 701.262C588.354 702.087 588.321 702.947 588.039 703.842C587.757 704.736 587.244 705.59 586.497 706.404C586.159 706.773 585.721 707.147 585.183 707.524C584.652 707.908 584.146 708.187 583.666 708.362C583.18 708.544 582.832 708.539 582.623 708.347C582.533 708.265 582.443 708.111 582.353 707.888C582.263 707.678 582.201 707.467 582.165 707.255C582.129 707.043 582.136 706.909 582.187 706.853C582.245 706.79 582.412 706.713 582.688 706.621C583.142 706.461 583.558 706.272 583.936 706.055C584.321 705.845 584.715 705.52 585.117 705.082C585.774 704.365 586.122 703.615 586.161 702.831C586.194 702.055 585.88 701.364 585.219 700.758C584.822 700.394 584.406 700.192 583.969 700.151C583.533 700.11 583.102 700.168 582.674 700.327C582.247 700.486 581.687 700.741 580.994 701.092C580.955 701.121 580.854 701.175 580.69 701.256C579.729 701.732 578.899 702.079 578.2 702.297C577.502 702.527 576.752 702.577 575.952 702.445C575.144 702.32 574.351 701.9 573.571 701.186C572.841 700.516 572.36 699.762 572.13 698.923C571.893 698.092 571.915 697.229 572.197 696.335C572.479 695.454 573 694.599 573.759 693.771Z" fill="black"/>
<path d="M558.366 707.069C558.652 706.868 558.884 706.756 559.064 706.733C559.25 706.717 559.397 706.787 559.506 706.941L568.263 719.357L572.221 716.566C572.367 716.463 572.507 716.44 572.639 716.496C572.772 716.553 572.911 716.686 573.058 716.894L573.295 717.229C573.447 717.445 573.525 717.621 573.529 717.758C573.538 717.901 573.469 718.025 573.322 718.128L563.672 724.935C563.525 725.038 563.386 725.062 563.253 725.005C563.126 724.956 562.987 724.823 562.834 724.607L562.598 724.272C562.451 724.064 562.373 723.887 562.364 723.744C562.355 723.6 562.423 723.476 562.57 723.373L566.446 720.639L557.689 708.222C557.477 707.922 557.649 707.575 558.204 707.184L558.366 707.069Z" fill="black"/>
<path d="M544.063 714.992C546.338 713.908 548.401 713.771 550.253 714.583C552.104 715.395 553.663 717.13 554.93 719.789C556.194 722.439 556.556 724.724 556.017 726.643C555.474 728.575 554.061 730.086 551.777 731.174C549.485 732.267 547.417 732.416 545.575 731.622C543.736 730.835 542.184 729.117 540.921 726.467C539.654 723.808 539.287 721.504 539.822 719.555C540.357 717.606 541.771 716.085 544.063 714.992ZM544.886 716.718C543.284 717.482 542.317 718.612 541.984 720.109C541.656 721.614 541.988 723.407 542.979 725.486C543.97 727.565 545.146 728.934 546.506 729.593C547.861 730.265 549.344 730.217 550.955 729.449C552.557 728.685 553.524 727.565 553.855 726.09C554.191 724.622 553.864 722.849 552.872 720.77C551.877 718.682 550.698 717.294 549.334 716.605C547.971 715.917 546.488 715.954 544.886 716.718Z" fill="black"/>
<path d="M527.044 720.985C527.174 720.962 527.337 721.09 527.532 721.371C527.72 721.663 527.836 721.935 527.882 722.185C527.906 722.315 527.901 722.422 527.869 722.504L520.243 738.193L529.158 736.563C529.334 736.531 529.476 736.572 529.583 736.687C529.683 736.812 529.76 737.024 529.814 737.321L529.85 737.516C529.904 737.813 529.906 738.033 529.856 738.177C529.796 738.322 529.678 738.411 529.501 738.443L518.163 740.516C518.107 740.526 518.024 740.465 517.913 740.332C517.793 740.2 517.682 740.038 517.58 739.846C517.477 739.653 517.411 739.473 517.38 739.306C517.358 739.185 517.364 739.084 517.397 739.001L525.02 723.299L515.339 725.069C515.162 725.101 515.025 725.059 514.927 724.942C514.82 724.828 514.739 724.622 514.685 724.325L514.649 724.13C514.595 723.832 514.596 723.607 514.655 723.452C514.705 723.308 514.819 723.22 514.995 723.188L527.044 720.985Z" fill="black"/>
<path d="M509.857 723.244C510.121 723.238 510.316 723.295 510.442 723.414C510.567 723.534 510.633 723.722 510.639 723.976L511.012 740.086C511.018 740.351 510.961 740.541 510.841 740.657C510.721 740.782 510.529 740.848 510.265 740.854L501.488 741.058C501.309 741.062 501.18 741.008 501.102 740.897C501.014 740.785 500.967 740.593 500.961 740.319L500.951 739.909C500.946 739.654 500.984 739.464 501.066 739.339C501.138 739.215 501.264 739.151 501.444 739.147L508.762 738.977L508.63 733.244L502.061 733.396C501.882 733.4 501.753 733.342 501.675 733.221C501.587 733.1 501.54 732.907 501.534 732.643L501.525 732.261C501.519 731.997 501.557 731.802 501.639 731.678C501.712 731.563 501.838 731.503 502.017 731.499L508.586 731.347L508.443 725.189L501.096 725.359C500.917 725.363 500.788 725.305 500.709 725.184C500.622 725.072 500.575 724.885 500.569 724.62L500.559 724.21C500.554 723.955 500.592 723.765 500.674 723.641C500.746 723.516 500.872 723.452 501.052 723.448L509.857 723.244Z" fill="black"/>
<path d="M495.223 722.722C495.896 722.816 496.207 723.045 496.156 723.41L493.896 739.608C493.859 739.869 493.772 740.048 493.635 740.143C493.496 740.248 493.296 740.282 493.035 740.245L488.841 739.66C486.85 739.382 485.403 738.823 484.5 737.982C483.588 737.14 483.24 735.952 483.454 734.419C483.598 733.381 483.973 732.542 484.577 731.902C485.17 731.27 485.945 730.839 486.902 730.611L486.915 730.512C486.453 730.276 486.101 729.894 485.86 729.364C485.609 728.843 485.358 728.084 485.106 727.086L483.844 721.891C483.82 721.716 483.813 721.596 483.823 721.531C483.859 721.269 484.228 721.187 484.929 721.285L485.182 721.32C485.434 721.355 485.649 721.419 485.827 721.51C485.994 721.61 486.093 721.724 486.123 721.852L487.333 727.011C487.487 727.68 487.703 728.216 487.981 728.617C488.258 729.017 488.612 729.319 489.041 729.522C489.47 729.725 490.026 729.874 490.709 729.969L492.952 730.283L493.955 723.102C494.005 722.738 494.363 722.602 495.027 722.694L495.223 722.722ZM489.406 731.718C488.817 731.636 488.26 731.701 487.735 731.914C487.2 732.125 486.76 732.445 486.414 732.873C486.058 733.309 485.843 733.794 485.768 734.327C485.631 735.309 485.829 736.08 486.36 736.64C486.891 737.21 487.684 737.568 488.741 737.716L491.854 738.15L492.688 732.176L489.406 731.718Z" fill="black"/>
<path d="M474.327 717.78C476.719 718.576 478.3 719.908 479.071 721.777C479.842 723.645 479.762 725.977 478.832 728.771C477.904 731.557 476.581 733.455 474.862 734.464C473.131 735.48 471.065 735.588 468.665 734.789C466.256 733.987 464.662 732.661 463.886 730.81C463.106 728.969 463.179 726.655 464.107 723.869C465.037 721.075 466.371 719.161 468.108 718.127C469.845 717.094 471.918 716.978 474.327 717.78ZM473.723 719.594C472.04 719.033 470.559 719.177 469.282 720.025C468.001 720.883 466.997 722.404 466.27 724.59C465.542 726.775 465.44 728.577 465.963 729.994C466.474 731.418 467.576 732.412 469.269 732.975C470.953 733.536 472.426 733.399 473.688 732.566C474.948 731.742 475.941 730.237 476.669 728.051C477.399 725.857 477.512 724.039 477.007 722.597C476.502 721.155 475.407 720.154 473.723 719.594Z" fill="black"/>
<path d="M453.646 707.431C453.938 707.621 454.129 707.796 454.217 707.955C454.3 708.122 454.289 708.284 454.186 708.442L445.89 721.171L449.946 723.815C450.097 723.913 450.17 724.034 450.166 724.178C450.163 724.322 450.091 724.501 449.952 724.715L449.728 725.059C449.583 725.28 449.449 725.418 449.323 725.471C449.193 725.533 449.053 725.515 448.903 725.417L439.009 718.968C438.859 718.87 438.786 718.749 438.789 718.605C438.788 718.469 438.86 718.29 439.004 718.069L439.228 717.725C439.367 717.511 439.502 717.374 439.632 717.312C439.763 717.25 439.903 717.269 440.053 717.367L444.027 719.957L452.324 707.228C452.525 706.92 452.91 706.951 453.48 707.323L453.646 707.431Z" fill="black"/>
<path d="M445.481 701.343C445.679 701.518 445.783 701.692 445.794 701.865C445.805 702.038 445.726 702.22 445.557 702.411L434.888 714.488C434.713 714.686 434.542 714.787 434.375 714.79C434.201 714.801 434.016 714.719 433.818 714.544L427.238 708.731C427.104 708.612 427.046 708.486 427.064 708.351C427.076 708.209 427.172 708.036 427.353 707.831L427.625 707.523C427.794 707.332 427.951 707.219 428.096 707.183C428.233 707.141 428.37 707.18 428.504 707.299L433.99 712.146L437.787 707.848L432.863 703.498C432.729 703.379 432.674 703.248 432.699 703.107C432.716 702.958 432.813 702.785 432.988 702.587L433.241 702.301C433.416 702.102 433.576 701.986 433.721 701.95C433.852 701.915 433.985 701.957 434.12 702.076L439.044 706.426L443.122 701.81L437.614 696.944C437.48 696.825 437.425 696.695 437.45 696.553C437.461 696.412 437.554 696.242 437.729 696.044L438.001 695.736C438.17 695.545 438.327 695.432 438.472 695.396C438.61 695.354 438.746 695.392 438.88 695.511L445.481 701.343Z" fill="black"/>
<path d="M435.353 691.411C435.579 691.69 435.709 691.918 435.744 692.096C435.771 692.281 435.712 692.432 435.565 692.551L422.649 702.994C422.355 703.232 421.995 703.086 421.568 702.558L421.238 702.15C421.072 701.945 420.971 701.759 420.935 701.594C420.892 701.422 420.899 701.235 420.954 701.033L425.333 687.148L425.962 685.674L415.491 694.141C415.197 694.379 414.843 694.241 414.427 693.727L414.303 693.573C413.887 693.059 413.826 692.683 414.12 692.446L427.036 682.002C427.182 681.883 427.343 681.857 427.517 681.922C427.684 681.994 427.875 682.161 428.088 682.426L428.409 682.822C428.557 683.006 428.654 683.17 428.699 683.316C428.744 683.462 428.742 683.603 428.694 683.738L424.178 698.061L423.592 699.409L434.185 690.844C434.471 690.613 434.825 690.757 435.247 691.279L435.353 691.411Z" fill="black"/>
<path d="M424.546 676.362C424.668 676.597 424.704 676.796 424.652 676.962C424.6 677.128 424.461 677.27 424.235 677.388L409.956 684.856C409.722 684.979 409.526 685.012 409.369 684.956C409.203 684.904 409.059 684.761 408.937 684.527L406.581 680.022C405.487 677.931 405.231 675.934 405.812 674.032C406.394 672.13 408.044 670.467 410.763 669.045C413.498 667.615 415.813 667.203 417.707 667.81C419.602 668.417 421.096 669.767 422.19 671.858L424.546 676.362ZM420.574 672.894C419.787 671.389 418.663 670.432 417.203 670.023C415.735 669.62 413.942 669.971 411.826 671.078C410.404 671.822 409.355 672.648 408.679 673.555C407.995 674.467 407.645 675.407 407.629 676.374C407.604 677.345 407.846 678.316 408.353 679.287L409.955 682.348L422.176 675.956L420.574 672.894Z" fill="black"/>
<path d="M416.536 657.474C416.822 658.354 416.994 659.206 417.053 660.031C417.101 660.849 417.064 661.531 416.943 662.076C416.811 662.616 416.632 662.922 416.407 662.995C416.282 663.035 416.1 663.04 415.861 663.008C415.62 662.967 415.396 662.906 415.191 662.824C414.985 662.742 414.87 662.66 414.843 662.579C414.82 662.507 414.841 662.327 414.906 662.038C415.013 661.388 415.071 660.758 415.082 660.15C415.093 659.541 414.972 658.846 414.718 658.064C414.52 657.454 414.227 656.948 413.839 656.548C413.451 656.148 413.004 655.886 412.497 655.763C411.979 655.634 411.441 655.659 410.885 655.84C410.292 656.032 409.855 656.353 409.574 656.801C409.281 657.244 409.096 657.73 409.021 658.261C408.933 658.786 408.858 659.534 408.797 660.507C408.741 661.558 408.649 662.406 408.521 663.053C408.382 663.694 408.079 664.303 407.611 664.882C407.141 665.451 406.416 665.895 405.438 666.212C404.585 666.489 403.75 666.517 402.934 666.295C402.109 666.077 401.376 665.625 400.737 664.939C400.098 664.253 399.607 663.385 399.267 662.335C399.112 661.859 399.003 661.294 398.94 660.639C398.867 659.988 398.873 659.41 398.958 658.907C399.04 658.394 399.215 658.094 399.484 658.006C399.601 657.968 399.779 657.965 400.017 657.997C400.244 658.023 400.459 658.072 400.661 658.145C400.864 658.219 400.976 658.291 401 658.363C401.026 658.444 401.011 658.627 400.955 658.913C400.871 659.387 400.83 659.842 400.832 660.278C400.826 660.717 400.914 661.219 401.098 661.785C401.398 662.71 401.879 663.382 402.542 663.803C403.201 664.214 403.957 664.281 404.81 664.004C405.322 663.838 405.703 663.575 405.954 663.216C406.205 662.857 406.366 662.452 406.438 662.002C406.511 661.552 406.565 660.939 406.601 660.163C406.595 660.115 406.598 660 406.608 659.818C406.667 658.747 406.774 657.854 406.929 657.138C407.072 656.417 407.399 655.74 407.908 655.109C408.415 654.468 409.171 653.984 410.177 653.658C411.119 653.352 412.012 653.305 412.856 653.518C413.696 653.722 414.436 654.166 415.075 654.852C415.702 655.532 416.19 656.406 416.536 657.474Z" fill="black"/>
<path d="M412.587 637.559C412.62 637.906 412.603 638.164 412.534 638.332C412.455 638.501 412.322 638.594 412.134 638.612L397.011 640.075L397.477 644.895C397.494 645.074 397.445 645.206 397.33 645.293C397.215 645.38 397.031 645.436 396.777 645.461L396.369 645.5C396.106 645.526 395.914 645.506 395.794 645.442C395.665 645.379 395.591 645.258 395.574 645.079L394.437 633.324C394.42 633.146 394.469 633.013 394.584 632.926C394.689 632.84 394.874 632.784 395.137 632.759L395.545 632.719C395.799 632.695 395.991 632.714 396.12 632.778C396.249 632.841 396.323 632.962 396.34 633.14L396.797 637.862L411.92 636.4C412.286 636.364 412.502 636.685 412.568 637.361L412.587 637.559Z" fill="black"/>
<path d="M412.806 620.639C412.612 623.152 411.701 625.009 410.074 626.209C408.448 627.408 406.166 627.895 403.23 627.668C400.303 627.442 398.141 626.616 396.746 625.192C395.342 623.758 394.737 621.78 394.932 619.258C395.128 616.726 396.03 614.859 397.638 613.658C399.236 612.456 401.499 611.968 404.426 612.194C407.362 612.421 409.542 613.253 410.965 614.688C412.388 616.124 413.001 618.107 412.806 620.639ZM410.9 620.492C411.037 618.723 410.539 617.321 409.407 616.286C408.266 615.251 406.547 614.645 404.25 614.467C401.954 614.29 400.181 614.626 398.931 615.477C397.674 616.317 396.976 617.626 396.838 619.405C396.701 621.174 397.19 622.571 398.304 623.594C399.408 624.617 401.109 625.217 403.405 625.395C405.711 625.573 407.503 625.243 408.78 624.404C410.056 623.565 410.763 622.261 410.9 620.492Z" fill="black"/>
<path d="M416.033 602.957C415.989 603.081 415.796 603.159 415.455 603.188C415.109 603.206 414.815 603.172 414.575 603.087C414.45 603.043 414.36 602.986 414.305 602.916L404.494 588.493L401.47 597.036C401.41 597.206 401.304 597.308 401.151 597.344C400.992 597.368 400.771 597.33 400.486 597.229L400.299 597.163C400.014 597.062 399.822 596.954 399.723 596.839C399.626 596.714 399.608 596.568 399.668 596.399L403.514 585.533C403.533 585.479 403.628 585.438 403.798 585.408C403.972 585.37 404.168 585.354 404.386 585.361C404.604 585.368 404.793 585.4 404.953 585.456C405.069 585.497 405.154 585.553 405.21 585.622L415.034 600.05L418.318 590.772C418.377 590.603 418.482 590.505 418.632 590.478C418.785 590.442 419.004 590.475 419.289 590.575L419.476 590.641C419.76 590.742 419.955 590.856 420.06 590.984C420.16 591.099 420.18 591.241 420.12 591.41L416.033 602.957Z" fill="black"/>
<path d="M422.503 587.111C422.376 587.343 422.229 587.483 422.063 587.532C421.896 587.581 421.701 587.544 421.477 587.422L407.339 579.691C407.107 579.564 406.971 579.419 406.93 579.257C406.881 579.091 406.92 578.892 407.047 578.66L411.259 570.957C411.345 570.799 411.456 570.715 411.592 570.703C411.732 570.683 411.922 570.738 412.162 570.87L412.523 571.067C412.746 571.189 412.892 571.317 412.959 571.45C413.03 571.575 413.023 571.717 412.937 571.874L409.424 578.297L414.456 581.049L417.608 575.284C417.694 575.127 417.809 575.044 417.953 575.037C418.102 575.021 418.292 575.077 418.524 575.203L418.859 575.387C419.091 575.514 419.241 575.644 419.307 575.777C419.371 575.898 419.359 576.037 419.273 576.194L416.121 581.959L421.525 584.914L425.051 578.466C425.137 578.309 425.252 578.226 425.396 578.219C425.536 578.199 425.722 578.252 425.954 578.379L426.314 578.576C426.538 578.698 426.683 578.826 426.75 578.96C426.822 579.085 426.814 579.226 426.728 579.383L422.503 587.111Z" fill="black"/>
<path d="M430.108 574.834C429.692 575.371 429.339 575.528 429.048 575.303L416.108 565.3C415.899 565.138 415.787 564.974 415.773 564.808C415.751 564.636 415.82 564.445 415.982 564.236L418.571 560.886C419.801 559.295 421.005 558.317 422.183 557.951C423.367 557.577 424.571 557.864 425.796 558.811C426.625 559.451 427.167 560.193 427.423 561.035C427.677 561.864 427.666 562.75 427.39 563.694L427.468 563.755C427.903 563.47 428.41 563.355 428.989 563.409C429.566 563.449 430.35 563.608 431.341 563.885L436.477 565.367C436.641 565.434 436.748 565.488 436.801 565.528C437.01 565.69 436.898 566.051 436.465 566.611L436.309 566.812C436.153 567.014 435.991 567.169 435.823 567.278C435.654 567.374 435.506 567.403 435.38 567.365L430.301 565.855C429.643 565.657 429.071 565.579 428.585 565.621C428.1 565.663 427.662 565.819 427.273 566.091C426.884 566.363 426.478 566.772 426.057 567.317L424.671 569.11L430.407 573.544C430.699 573.769 430.639 574.147 430.229 574.677L430.108 574.834ZM425.185 565.319C425.549 564.848 425.769 564.332 425.845 563.771C425.927 563.202 425.868 562.661 425.668 562.148C425.466 561.622 425.152 561.195 424.726 560.865C423.942 560.259 423.175 560.048 422.424 560.231C421.667 560.409 420.961 560.92 420.309 561.764L418.386 564.251L423.159 567.94L425.185 565.319Z" fill="black"/>
<path d="M444.84 559.026C442.963 560.708 441.023 561.421 439.018 561.165C437.013 560.908 435.027 559.683 433.061 557.49C431.101 555.304 430.109 553.215 430.084 551.221C430.06 549.214 430.99 547.366 432.873 545.678C434.764 543.982 436.706 543.256 438.698 543.499C440.684 543.734 442.657 544.945 444.617 547.131C446.583 549.324 447.584 551.431 447.621 553.452C447.658 555.472 446.731 557.33 444.84 559.026ZM443.564 557.602C444.886 556.417 445.494 555.06 445.391 553.53C445.281 551.993 444.457 550.367 442.919 548.652C441.382 546.937 439.868 545.956 438.377 545.707C436.887 545.445 435.478 545.91 434.15 547.101C432.828 548.286 432.216 549.633 432.315 551.142C432.406 552.645 433.221 554.253 434.759 555.969C436.303 557.691 437.826 558.69 439.328 558.965C440.831 559.241 442.243 558.787 443.564 557.602Z" fill="black"/>
<path d="M457.914 549.492C457.617 549.676 457.377 549.773 457.196 549.785C457.01 549.789 456.867 549.71 456.768 549.549L448.801 536.612L444.678 539.151C444.525 539.245 444.384 539.26 444.256 539.195C444.127 539.13 443.996 538.989 443.862 538.772L443.647 538.422C443.508 538.197 443.441 538.017 443.446 537.881C443.446 537.737 443.523 537.618 443.675 537.524L453.731 531.331C453.884 531.237 454.025 531.222 454.153 531.287C454.277 531.344 454.408 531.485 454.547 531.71L454.762 532.06C454.896 532.277 454.962 532.457 454.963 532.601C454.963 532.746 454.886 532.865 454.733 532.959L450.694 535.446L458.661 548.384C458.855 548.697 458.662 549.032 458.083 549.388L457.914 549.492Z" fill="black"/>
<path d="M466.849 544.727C466.606 544.831 466.404 544.85 466.243 544.786C466.082 544.721 465.952 544.572 465.851 544.337L459.519 529.519C459.415 529.276 459.397 529.079 459.465 528.926C459.53 528.765 459.684 528.633 459.927 528.529L468 525.079C468.165 525.008 468.304 525.01 468.418 525.085C468.541 525.155 468.656 525.317 468.764 525.568L468.925 525.946C469.025 526.18 469.06 526.371 469.03 526.517C469.009 526.659 468.916 526.766 468.751 526.836L462.019 529.713L464.273 534.987L470.315 532.405C470.48 532.334 470.621 532.341 470.739 532.424C470.865 532.503 470.98 532.665 471.084 532.908L471.234 533.259C471.338 533.502 471.375 533.697 471.345 533.843C471.32 533.977 471.225 534.079 471.06 534.15L465.019 536.732L467.439 542.396L474.197 539.508C474.362 539.437 474.503 539.444 474.621 539.527C474.744 539.597 474.857 539.754 474.961 539.997L475.122 540.375C475.222 540.609 475.258 540.8 475.228 540.946C475.206 541.089 475.113 541.195 474.948 541.266L466.849 544.727Z" fill="black"/>
<path d="M480.037 539.843C479.688 539.926 479.426 539.945 479.25 539.9C479.072 539.845 478.961 539.726 478.917 539.543L475.062 523.386C474.974 523.019 475.261 522.757 475.922 522.599L476.432 522.477C476.689 522.416 476.9 522.404 477.064 522.443C477.238 522.479 477.404 522.565 477.563 522.702L488.203 532.639L489.262 533.842L486.136 520.744C486.048 520.377 486.326 520.116 486.969 519.963L487.161 519.917C487.804 519.764 488.169 519.87 488.257 520.238L492.112 536.394C492.156 536.578 492.111 536.734 491.977 536.863C491.84 536.983 491.607 537.082 491.276 537.161L490.78 537.28C490.551 537.334 490.361 537.351 490.21 537.328C490.059 537.306 489.933 537.244 489.831 537.142L478.854 526.893L477.89 525.783L481.052 539.033C481.138 539.391 480.854 539.648 480.202 539.804L480.037 539.843Z" fill="black"/>
<path d="M498.045 536.54C497.78 536.55 497.585 536.496 497.457 536.378C497.33 536.26 497.261 536.074 497.251 535.819L496.63 519.717C496.62 519.453 496.674 519.262 496.792 519.144C496.91 519.017 497.101 518.948 497.365 518.938L502.445 518.742C504.803 518.651 506.716 519.276 508.185 520.617C509.654 521.959 510.448 524.162 510.566 527.228C510.685 530.313 510.064 532.58 508.703 534.031C507.342 535.482 505.482 536.253 503.124 536.344L498.045 536.54ZM502.881 534.44C504.579 534.374 505.925 533.77 506.92 532.626C507.915 531.473 508.366 529.703 508.274 527.316C508.212 525.713 507.916 524.411 507.386 523.411C506.856 522.402 506.157 521.683 505.291 521.253C504.423 520.814 503.443 520.616 502.349 520.658L498.896 520.792L499.428 534.573L502.881 534.44Z" fill="black"/>
<path d="M519.47 537.452C518.553 537.328 517.71 537.113 516.942 536.809C516.184 536.497 515.586 536.168 515.147 535.823C514.718 535.469 514.52 535.175 514.552 534.942C514.57 534.811 514.644 534.645 514.777 534.443C514.918 534.243 515.07 534.069 515.233 533.919C515.397 533.77 515.52 533.701 515.604 533.713C515.679 533.723 515.833 533.82 516.065 534.004C516.604 534.382 517.146 534.708 517.69 534.982C518.234 535.255 518.913 535.447 519.727 535.558C520.363 535.644 520.945 535.599 521.474 535.423C522.003 535.247 522.433 534.958 522.764 534.555C523.105 534.144 523.315 533.649 523.394 533.069C523.478 532.451 523.379 531.919 523.096 531.471C522.825 531.015 522.466 530.638 522.021 530.339C521.586 530.032 520.944 529.64 520.094 529.163C519.172 528.657 518.447 528.206 517.92 527.811C517.403 527.407 516.985 526.869 516.667 526.197C516.358 525.527 516.272 524.681 516.411 523.662C516.531 522.773 516.868 522.009 517.422 521.37C517.977 520.721 518.702 520.257 519.597 519.979C520.492 519.7 521.487 519.635 522.581 519.783C523.077 519.851 523.634 519.998 524.251 520.224C524.869 520.441 525.387 520.697 525.804 520.992C526.231 521.288 526.425 521.577 526.387 521.857C526.37 521.979 526.296 522.14 526.164 522.341C526.043 522.534 525.905 522.706 525.751 522.857C525.597 523.008 525.483 523.078 525.408 523.068C525.324 523.056 525.165 522.963 524.932 522.789C524.541 522.507 524.149 522.273 523.755 522.086C523.362 521.89 522.872 521.752 522.282 521.672C521.319 521.541 520.504 521.683 519.838 522.098C519.181 522.513 518.793 523.166 518.672 524.054C518.6 524.588 518.671 525.045 518.886 525.427C519.101 525.808 519.396 526.129 519.77 526.39C520.145 526.65 520.673 526.965 521.357 527.334C521.402 527.349 521.505 527.401 521.664 527.49C522.604 528.008 523.362 528.492 523.94 528.942C524.527 529.383 524.996 529.971 525.344 530.704C525.702 531.438 525.809 532.33 525.667 533.377C525.534 534.359 525.189 535.184 524.631 535.852C524.083 536.52 523.362 536.994 522.466 537.273C521.582 537.543 520.583 537.603 519.47 537.452Z" fill="black"/>
<path d="M539.063 542.464C538.735 542.344 538.51 542.216 538.389 542.081C538.271 541.937 538.244 541.777 538.309 541.599L543.54 527.334L538.993 525.667C538.825 525.605 538.726 525.504 538.698 525.363C538.669 525.221 538.699 525.031 538.786 524.792L538.928 524.406C539.019 524.158 539.119 523.994 539.229 523.914C539.342 523.824 539.483 523.811 539.651 523.872L550.739 527.938C550.907 528 551.006 528.101 551.035 528.242C551.067 528.375 551.037 528.565 550.946 528.813L550.805 529.199C550.717 529.438 550.616 529.602 550.503 529.692C550.39 529.781 550.249 529.795 550.081 529.733L545.627 528.1L540.396 542.365C540.27 542.71 539.887 542.766 539.249 542.532L539.063 542.464Z" fill="black"/>
<path d="M553.871 549.782C551.687 548.525 550.404 546.903 550.022 544.918C549.64 542.934 550.184 540.665 551.654 538.113C553.119 535.569 554.795 533.974 556.681 533.328C558.58 532.679 560.626 532.985 562.818 534.248C565.019 535.515 566.315 537.133 566.706 539.102C567.102 541.062 566.568 543.314 565.102 545.858C563.632 548.41 561.943 550.019 560.035 550.685C558.126 551.351 556.072 551.05 553.871 549.782ZM554.825 548.126C556.363 549.012 557.843 549.167 559.264 548.591C560.69 548.007 561.977 546.716 563.127 544.72C564.276 542.724 564.737 540.98 564.507 539.486C564.291 537.989 563.41 536.795 561.864 535.904C560.326 535.019 558.855 534.858 557.452 535.422C556.053 535.978 554.779 537.255 553.629 539.251C552.475 541.255 552.001 543.014 552.208 544.527C552.415 546.041 553.287 547.24 554.825 548.126Z" fill="black"/>
<path d="M568.229 560.101C568.135 560.008 568.148 559.801 568.267 559.48C568.399 559.159 568.555 558.908 568.734 558.727C568.828 558.634 568.917 558.577 569.004 558.556L586.236 555.85L579.805 549.465C579.678 549.339 579.63 549.199 579.663 549.045C579.709 548.892 579.839 548.708 580.052 548.493L580.191 548.353C580.404 548.138 580.584 548.011 580.731 547.97C580.884 547.936 581.025 547.982 581.152 548.109L589.332 556.229C589.372 556.269 589.369 556.373 589.323 556.54C589.283 556.714 589.214 556.897 589.115 557.091C589.015 557.285 588.906 557.443 588.786 557.563C588.699 557.65 588.613 557.704 588.526 557.724L571.284 560.44L578.268 567.374C578.395 567.5 578.439 567.637 578.4 567.784C578.367 567.938 578.244 568.122 578.031 568.336L577.892 568.477C577.679 568.691 577.492 568.819 577.332 568.859C577.186 568.9 577.049 568.857 576.921 568.73L568.229 560.101Z" fill="black"/>
<path d="M579.977 572.914C579.821 572.7 579.757 572.508 579.784 572.336C579.811 572.165 579.928 572.004 580.134 571.854L593.165 562.375C593.379 562.219 593.568 562.158 593.731 562.191C593.903 562.218 594.066 562.338 594.222 562.552L599.386 569.651C599.492 569.796 599.521 569.933 599.474 570.06C599.432 570.196 599.301 570.344 599.079 570.505L598.747 570.747C598.541 570.897 598.363 570.973 598.214 570.977C598.07 570.988 597.946 570.921 597.84 570.776L593.534 564.856L588.896 568.229L592.761 573.542C592.867 573.688 592.892 573.827 592.837 573.96C592.788 574.101 592.656 574.249 592.443 574.405L592.133 574.629C591.92 574.785 591.738 574.864 591.589 574.868C591.453 574.873 591.332 574.804 591.227 574.659L587.362 569.345L582.381 572.969L586.704 578.912C586.809 579.057 586.835 579.196 586.78 579.329C586.738 579.465 586.61 579.61 586.397 579.766L586.065 580.007C585.858 580.157 585.681 580.234 585.532 580.237C585.388 580.248 585.263 580.181 585.158 580.036L579.977 572.914Z" fill="black"/>
<path d="M587.865 585.093C587.557 584.487 587.567 584.101 587.895 583.934L602.47 576.515C602.706 576.395 602.902 576.364 603.059 576.422C603.224 576.476 603.366 576.62 603.486 576.856L605.407 580.629C606.319 582.421 606.688 583.928 606.515 585.149C606.347 586.379 605.573 587.345 604.193 588.047C603.259 588.522 602.357 588.696 601.486 588.567C600.628 588.442 599.832 588.053 599.097 587.4L599.009 587.445C599.08 587.959 598.967 588.467 598.671 588.967C598.388 589.471 597.909 590.112 597.235 590.89L593.698 594.898C593.568 595.017 593.474 595.092 593.415 595.122C593.179 595.242 592.901 594.986 592.58 594.355L592.464 594.128C592.348 593.901 592.277 593.688 592.251 593.49C592.236 593.296 592.273 593.15 592.361 593.052L595.898 589.107C596.359 588.597 596.674 588.114 596.844 587.656C597.014 587.199 597.059 586.737 596.98 586.269C596.901 585.801 596.705 585.259 596.392 584.645L595.364 582.626L588.903 585.915C588.575 586.082 588.259 585.867 587.955 585.269L587.865 585.093ZM598.571 584.712C598.841 585.242 599.213 585.662 599.688 585.971C600.168 586.288 600.682 586.466 601.231 586.504C601.793 586.547 602.313 586.446 602.793 586.202C603.676 585.752 604.196 585.149 604.351 584.392C604.514 583.631 604.354 582.775 603.87 581.824L602.444 579.023L597.068 581.759L598.571 584.712Z" fill="black"/>
<path d="M595.809 605.097C595.095 602.68 595.284 600.621 596.376 598.92C597.468 597.219 599.426 595.951 602.25 595.116C605.066 594.284 607.379 594.285 609.191 595.118C611.014 595.957 612.284 597.59 613.001 600.016C613.72 602.451 613.543 604.517 612.47 606.212C611.405 607.905 609.465 609.167 606.649 609.999C603.825 610.834 601.492 610.835 599.65 610.001C597.809 609.167 596.529 607.532 595.809 605.097ZM597.642 604.555C598.145 606.257 599.11 607.389 600.536 607.952C601.972 608.512 603.794 608.466 606.003 607.813C608.212 607.16 609.748 606.214 610.612 604.974C611.488 603.741 611.673 602.269 611.168 600.558C610.665 598.856 609.71 597.725 608.305 597.166C606.908 596.604 605.105 596.65 602.897 597.303C600.679 597.958 599.123 598.905 598.229 600.144C597.335 601.383 597.139 602.853 597.642 604.555Z" fill="black"/>
<g filter="url(#filter0_d_15_7193)">
<path d="M300.303 12.57L86.7134 20.0287C62.5712 20.8717 43.6834 41.1263 44.5265 65.2685L63.0833 596.665C63.9263 620.807 84.1809 639.695 108.323 638.851L321.913 631.393C346.055 630.55 364.943 610.295 364.1 586.153L345.543 54.7568C344.7 30.6146 324.445 11.7269 300.303 12.57Z" fill="#F2F2F2"/>
</g>
<path fill-rule="evenodd" clip-rule="evenodd" d="M85.7944 33.2684C69.7 33.8312 57.1084 47.3336 57.67 63.4292L76.2952 596.766C76.8568 612.861 90.3604 625.453 106.455 624.891L321.933 617.366C338.027 616.804 350.619 603.301 350.057 587.206L331.432 53.8688C330.87 37.7744 317.367 25.1816 301.272 25.7444L267.681 26.9168L267.85 31.7756C268.168 40.8956 261.033 48.548 251.913 48.866L137.474 52.862C128.354 53.1812 120.702 46.046 120.383 36.9248L120.214 32.0672L85.7944 33.2684Z" fill="#1F28CF"/>
<mask id="mask0_15_7193" style="mask-type:alpha" maskUnits="userSpaceOnUse" x="65" y="7" width="405" height="619">
<path d="M448.352 7.40006L65.7856 20.7596L86.8928 625.191L469.46 611.832L448.352 7.40006Z" fill="white"/>
</mask>
<g mask="url(#mask0_15_7193)">
<path fill-rule="evenodd" clip-rule="evenodd" d="M347.591 160.845C351.594 175.833 358.304 187.687 363.809 190.81C377.616 198.642 417.646 159.225 424.47 135.036C431.294 110.847 394.012 61.4288 361.322 90.8432C349.977 101.052 345.143 115.273 344.244 129.818L277.21 174.822L312.646 209.042L347.591 160.845Z" fill="#B28B67"/>
<path fill-rule="evenodd" clip-rule="evenodd" d="M443.118 124.166C435.513 132.042 423.117 132.505 414.934 125.404C409.157 122.476 402.465 117.96 395.71 112.26C394.092 115.167 391.89 118.118 389.022 121.087C386.49 123.709 383.516 126.21 380.255 128.518C380.457 125.557 379.646 122.714 377.778 120.91C372.556 115.867 364.776 116.647 360.376 121.203C354.792 126.985 354.095 134.396 358.652 139.443C346.124 143.623 333.92 144.098 327.849 138.235C316.316 127.098 322.985 103.78 338.973 87.2252C339.534 86.6432 340.104 86.0768 340.68 85.5248C334.193 84.4304 327.189 84.4436 320.134 84.458C305.145 84.4868 289.926 84.5156 278.95 73.916C256.99 52.7096 290.986 0.0512123 321.669 29.6804C342.534 49.8308 349.865 62.7812 354.372 75.8156C360.86 72.5888 367.508 71.0288 373.546 71.2856C375.178 71.162 377.19 71.4788 379.492 72.1928C380.938 72.59 382.324 73.1144 383.636 73.7696C390.861 76.964 399.922 83.0444 408.844 91.0784C410.51 92.5784 412.108 94.0904 413.633 95.6024C421.502 87.5048 434.453 87.3032 442.592 95.162C450.747 103.038 450.982 116.023 443.118 124.166Z" fill="#191847"/>
<path fill-rule="evenodd" clip-rule="evenodd" d="M34.3636 492.771C34.3636 492.771 102.292 528.34 154.695 539.479C207.098 550.617 258.66 529.038 258.66 529.038C258.66 529.038 192.392 493.263 146.656 483.541C100.92 473.82 34.3636 492.771 34.3636 492.771Z" fill="#1F28CF"/>
<path fill-rule="evenodd" clip-rule="evenodd" d="M192.249 567.765C191.933 566.968 191.702 566.125 191.566 565.236C188.751 546.835 124.719 341.162 121.589 305.382L237.656 330.052C240.035 357.256 241.108 525.026 239.256 558.06C244.14 611.824 241.544 782.037 243.239 794.228C245.024 807.052 218.108 814.296 214.749 798.283C209.405 772.802 198.574 703.14 196.017 661.466C193.619 622.398 192.336 587.436 192.249 567.765Z" fill="#997659"/>
<path fill-rule="evenodd" clip-rule="evenodd" d="M92.5216 570.018C42.856 571.921 -134.122 556.827 -146.672 557.694C-159.58 558.584 -164.916 531.211 -148.717 528.97C-122.942 525.405 -52.7384 519.432 -11.0168 519.774C22.5424 520.047 53.0308 520.932 73.402 521.984C83.506 466.236 104.132 331.68 115.236 304.032L217.932 325.861C207.285 352.374 124.038 544.646 112.229 563.152C108.311 569.823 100.502 571.479 92.5216 570.018Z" fill="#B28B67"/>
<path fill-rule="evenodd" clip-rule="evenodd" d="M115.568 304.102C115.568 304.102 187.582 299.095 244.026 331.407C244.44 398.546 273.168 431.264 258.266 530.896C182.808 550.324 110.865 474.271 33.5812 492.432C23.3476 441.877 75.1432 336.374 115.568 304.102Z" fill="#2B44FF"/>
<path fill-rule="evenodd" clip-rule="evenodd" d="M352.356 474.561L334.444 395.384L300.072 412.854L331.392 475.641C331.118 503.9 332.973 517.393 336.957 516.117C340.317 515.042 341.09 511.974 341.801 509.148C342.356 506.947 342.873 504.891 344.548 504.04C348.372 502.096 357.395 510.492 365.618 518.823C373.839 527.156 374.675 521.011 374.231 517.232C369.912 504.043 362.62 489.819 352.356 474.561ZM20.0944 356.922C31.7764 349.977 113.644 261.52 113.644 261.52L149.526 285.024C149.526 285.024 46.4536 370.8 39.5295 375.646C30.5356 381.944 28.3396 398.154 26.8504 409.146C26.6212 410.846 26.4076 412.422 26.188 413.816C19.0744 412.7 18.3604 408.002 17.6068 403.05C16.756 397.455 15.856 391.536 5.6308 390.085C1.6804 389.523 -2.27481 389.325 -6.13761 389.132C-19.4828 388.465 -31.7432 387.85 -39.008 372.522C-40.16 370.092 -39.3704 364.27 -32.0252 364.09C-13.7276 363.643 14.3836 360.316 20.0944 356.922Z" fill="#B28B67"/>
<path fill-rule="evenodd" clip-rule="evenodd" d="M313.773 177.163L330.314 184.28C314.422 264.859 321.44 352.009 351.368 445.731L265.09 472.941C249.554 357.076 260.043 254.757 313.773 177.163Z" fill="#191847"/>
<path fill-rule="evenodd" clip-rule="evenodd" d="M127.563 321.838L260.115 407.918C260.115 407.918 286.688 266.154 337.46 187.972L301.338 156.056C237.138 186.121 187.91 242.498 127.563 321.838Z" fill="#DDE3E9"/>
<path fill-rule="evenodd" clip-rule="evenodd" d="M30.4708 339.442C151.031 185.532 300.46 155.486 300.46 155.486L300.474 155.535C300.485 155.529 300.497 155.523 300.508 155.517L303.118 157.212C307.698 160.416 317.012 167.06 317.012 167.06L308.766 200.908C277.552 252.331 194.678 415.788 194.678 415.788L107.915 359.443C103.512 366.546 99.2248 373.863 95.0776 381.399L30.4708 339.442Z" fill="#2F3676"/>
<path fill-rule="evenodd" clip-rule="evenodd" d="M107.49 360.129C126.614 329.166 147.93 302.275 169.29 279.283C151.676 311.586 132.576 351.817 131.662 375.828L107.49 360.129Z" fill="black" fill-opacity="0.1"/>
<path fill-rule="evenodd" clip-rule="evenodd" d="M161.297 319.304L217.06 327.236L204.142 347.128L161.297 319.304Z" fill="white" fill-opacity="0.2"/>
</g>
<path fill-rule="evenodd" clip-rule="evenodd" d="M468.275 303.236C459.225 303.882 451.395 302.432 448.62 299.982C441.665 293.838 455.855 264.169 467.936 255.776C480.015 247.384 514.432 258.58 504.378 282.28C500.89 290.505 493.944 295.893 486.07 299.167L473.925 344.842L448.264 331.768L468.275 303.236Z" fill="#B28B67"/>
<path fill-rule="evenodd" clip-rule="evenodd" d="M464.724 233.974C466.208 232.377 468.452 231.506 470.62 232.014C471.146 232.136 471.651 232.335 472.122 232.6C472.29 232.694 472.314 232.768 472.456 232.689C472.562 232.63 472.674 232.413 472.752 232.321C472.995 232.033 473.255 231.759 473.534 231.505C474.483 230.638 475.643 230.035 476.867 229.652C479.156 228.936 481.745 228.955 483.983 229.861C485.208 230.356 486.276 231.141 487.192 232.088C487.665 232.578 488.097 233.108 488.5 233.656C488.622 233.821 488.948 234.493 489.125 234.549C489.321 234.613 489.914 234.349 490.118 234.31C492.648 233.842 495.174 234.438 497.432 235.609C499.979 236.931 502.377 238.314 503.716 240.96C503.999 241.52 504.245 242.101 504.46 242.69C504.574 243 504.677 243.314 504.766 243.632C504.82 243.824 504.868 244.017 504.911 244.212C504.983 244.542 504.914 244.603 505.264 244.576C506.609 244.476 507.947 244.79 509.07 245.548C509.738 245.998 510.321 246.565 510.834 247.18C511.012 247.39 511.336 248.036 511.564 248.161C511.804 248.286 512.5 248.192 512.788 248.226C514.348 248.41 515.824 249.014 517.096 249.944C518.404 250.903 519.52 252.187 520.324 253.59C520.72 254.264 521.008 254.942 521.128 255.712C521.188 256.046 521.212 256.383 521.296 256.711C521.344 256.902 521.512 257.155 521.488 257.354C521.5 257.235 523.408 257.433 523.588 257.47C524.488 257.671 525.292 258.13 525.94 258.789C527.176 260.031 527.896 261.771 528.364 263.424C528.616 264.272 528.76 265.148 528.808 266.028C528.832 266.45 528.844 266.872 528.832 267.295C528.82 267.5 528.772 267.733 528.796 267.933C528.832 268.191 528.916 268.24 529.108 268.446C530.104 269.487 530.848 270.768 531.196 272.166C531.544 273.582 531.472 275.071 531.064 276.462C531.04 276.544 530.884 276.859 530.908 276.922C530.944 277.009 531.196 277.107 531.28 277.166C531.58 277.365 531.868 277.582 532.144 277.816C532.648 278.246 533.116 278.732 533.512 279.265C535.048 281.342 535.552 284.013 535.18 286.54C534.784 289.192 533.452 291.781 531.412 293.541C531.076 293.826 530.728 294.085 530.356 294.31C530.128 294.448 530.08 294.428 530.056 294.682C530.032 294.964 530.08 295.279 530.068 295.564C530.032 296.498 529.876 297.422 529.612 298.317C529.192 299.786 528.604 301.257 527.656 302.478C527.224 303.044 526.708 303.552 526.108 303.951C525.808 304.155 525.484 304.33 525.148 304.473C524.98 304.546 524.8 304.611 524.62 304.669C524.512 304.701 524.392 304.714 524.296 304.76C524.056 304.87 524.104 304.704 524.044 305.012C523.948 305.444 523.996 305.937 523.948 306.379C523.9 306.834 523.84 307.286 523.768 307.737C523.612 308.65 523.42 309.558 523.132 310.44C522.58 312.133 521.692 313.777 520.216 314.836C519.592 315.289 518.86 315.596 518.104 315.735C517.72 315.802 517.348 315.831 516.964 315.819C516.772 315.814 516.556 315.744 516.4 315.86C516.244 315.984 516.184 316.368 516.124 316.563C515.536 318.271 514.804 320 513.532 321.318C512.368 322.532 510.761 323.312 509.088 323.516C505.842 323.914 502.632 322.162 500.758 319.566C500.27 318.889 499.865 318.151 499.568 317.372C497.196 318.548 494.333 317.014 492.552 315.428C490.335 313.45 489.186 310.623 489.195 307.681C486.573 308.827 483.501 306.457 483.468 303.747C483.46 303.084 483.591 302.424 483.808 301.8C483.922 301.471 484.107 301.176 484.229 300.855C484.386 300.446 484.32 299.937 484.362 299.486C484.444 298.609 484.648 297.763 485.042 296.971C485.248 296.557 485.504 296.184 485.751 295.795C485.973 295.446 486.046 295.052 486.172 294.66C486.774 295.102 487.665 295.333 488.38 295.458C489.082 295.58 489.902 295.378 490.559 295.147C492.087 294.61 493.391 293.552 494.501 292.402C496.936 289.878 498.389 286.101 496.218 282.93C495.208 281.452 491.012 279.316 489.15 278.845C487.194 278.348 483.234 281.205 482.951 281.518C482.776 281.713 482.664 282.007 482.381 282.052C481.76 282.15 481.301 281.196 481.11 280.742C480.78 279.961 480.698 279.102 480.675 278.262C480.627 276.433 480.782 274.576 481.137 272.782C481.412 271.399 481.828 270.042 481.982 268.635C482.134 267.236 481.967 265.832 481.216 264.613C480.399 263.286 479.234 262.213 478.163 261.096C477.102 259.988 476.115 258.793 475.601 257.329C475.488 257.006 475.389 256.675 475.337 256.338C475.298 256.071 475.349 255.627 475.2 255.394C474.966 255.033 474.228 255.288 473.85 255.324C471.982 255.501 470.166 256.152 468.52 257.034C466.883 257.911 465.442 258.824 464.039 260.019C462.999 260.907 461.973 262.2 460.682 262.702C460.104 262.928 457.251 261.787 456.55 260.978C455.85 260.168 455.336 258.73 455.337 257.995C455.339 257.241 455.602 256.546 456.065 255.957C456.338 255.61 456.677 255.33 456.956 254.994C457.19 254.713 457.408 254.445 457.71 254.232C458.286 253.83 458.99 253.688 459.678 253.83C459.345 252.93 459.178 251.97 459.212 251.01C459.248 250.012 459.43 248.87 459.79 247.94C460.083 247.184 460.576 246.496 461.284 246.08C462.027 245.642 462.972 245.592 463.811 245.51C463.23 244.262 462.872 242.922 462.711 241.557C462.396 238.904 462.85 235.992 464.724 233.974Z" fill="#191847"/>
<path fill-rule="evenodd" clip-rule="evenodd" d="M451 433.4L392.102 582.472L352.599 708.5H337L397.391 433.4H451Z" fill="#997659"/>
<path fill-rule="evenodd" clip-rule="evenodd" d="M462.86 433.4C463.487 485.785 472.634 556.312 474.095 559.579C475.557 562.844 574.984 642.63 574.984 642.63L564.244 654.127C564.244 654.127 446.924 585.721 441.495 576.597C436.066 567.474 418.391 483.516 404.2 433.4H462.86Z" fill="#B28B67"/>
<path fill-rule="evenodd" clip-rule="evenodd" d="M573.256 640.477C573.652 639.128 575.08 638.325 576.4 638.808C578.8 639.687 582.328 641.11 583.888 642.42C586.372 644.506 590.44 649.338 590.44 649.338C588.028 652.222 546.94 701.185 546.94 701.185C546.94 701.185 538.564 697.599 541.684 692.798C544.804 687.997 546.796 684.757 546.796 684.757L556.264 651.644C556.456 650.994 557.14 650.626 557.788 650.83L562.84 652.435C562.84 652.435 568.108 649.982 570.22 647.461C571.504 645.927 572.596 642.738 573.256 640.477Z" fill="#E4E4E4"/>
<path fill-rule="evenodd" clip-rule="evenodd" d="M355.66 701.341C356.946 700.776 358.475 701.348 358.954 702.669C359.828 705.078 361 708.691 361 710.727C361 713.973 359.919 720.2 359.919 720.2C356.153 720.2 292.236 720.2 292.236 720.2C292.236 720.2 289.598 711.478 295.282 710.782C300.966 710.088 304.726 709.527 304.726 709.527L336.184 695.503C336.802 695.227 337.524 695.516 337.782 696.141L339.804 701.047C339.804 701.047 345.066 703.502 348.356 703.502C350.358 703.502 353.505 702.289 355.66 701.341Z" fill="#E4E4E4"/>
<path fill-rule="evenodd" clip-rule="evenodd" d="M411.4 695.52L337.235 687.47L392.2 433.4H458.627L411.4 695.52Z" fill="#69A1AC"/>
<path fill-rule="evenodd" clip-rule="evenodd" d="M559.648 624.08L511 681.663C511 681.663 434.14 597.718 421.38 572.115C408.622 546.512 398.441 433.4 398.441 433.4H473.226C473.226 433.4 478.787 532.911 480.723 537.542C482.66 542.173 559.648 624.08 559.648 624.08Z" fill="#89C5CC"/>
<path fill-rule="evenodd" clip-rule="evenodd" d="M328.99 356.769L366.561 385.816L348.785 399.716L323.229 367.611C308.169 360.777 301.47 356.462 303.132 354.666C304.534 353.15 306.353 353.499 308.028 353.82C309.334 354.069 310.552 354.303 311.418 353.625C313.396 352.08 311.176 345.224 308.79 338.81C306.405 332.395 309.872 333.47 311.766 334.638C317.694 340.184 323.435 347.562 328.99 356.769ZM510.816 432.232L535.852 433.447C541.408 480.132 545.224 505.908 547.312 510.778C548.848 514.35 561.004 525.591 569.5 532.096C572.908 534.706 571.276 537.734 569.896 538.488C561.196 543.246 555.196 539.32 548.656 535.046C546.76 533.809 544.828 532.543 542.764 531.45C537.424 528.62 534.964 531.112 532.648 533.468C530.584 535.554 528.64 537.531 524.884 535.614C525.268 534.878 525.7 534.06 526.18 533.175C529.252 527.46 533.788 519.032 531.688 512.958C530.62 509.84 523.66 482.932 510.816 432.232Z" fill="#B28B67"/>
<path fill-rule="evenodd" clip-rule="evenodd" d="M469.404 322.06L459.767 317.823C432.533 333.628 410.842 382.504 394.54 385.626C379.128 388.576 361.084 377.504 339.885 363.342L328.782 377.494C344.231 405.656 384.478 436.228 405.497 429.745C439.104 419.378 461.562 358.026 469.404 322.06Z" fill="#DB2721"/>
<path fill-rule="evenodd" clip-rule="evenodd" d="M481.749 459.532C481.749 459.532 421.193 444.434 392.662 437.32C388.592 436.305 390.824 430.618 392.152 427.798C407.478 395.259 443.19 364.969 455.34 316.239L482.042 318.616C494.772 358.1 491.63 402.02 481.749 459.532Z" fill="#DDE3E9"/>
<path fill-rule="evenodd" clip-rule="evenodd" d="M483.406 318.957L483.699 319.03C532.48 368.919 553.588 432.662 547.012 510.259L527.428 509.26C518.656 491.766 509.268 464.374 499.275 427.088C499.928 448.21 498.948 469.465 495.446 488.918L415.254 468.925C409.511 425.822 473.524 316.494 473.524 316.494L479.061 317.874L483.406 318.957Z" fill="#FF4133"/>
<defs>
<filter id="filter0_d_15_7193" x="0.499344" y="0.542786" width="387.628" height="694.336" filterUnits="userSpaceOnUse" color-interpolation-filters="sRGB">
<feFlood flood-opacity="0" result="BackgroundImageFix"/>
<feColorMatrix in="SourceAlpha" type="matrix" values="0 0 0 0 0 0 0 0 0 0 0 0 0 0 0 0 0 0 127 0" result="hardAlpha"/>
<feOffset dx="-10" dy="22"/>
<feGaussianBlur stdDeviation="17"/>
<feColorMatrix type="matrix" values="0 0 0 0 0 0 0 0 0 0 0 0 0 0 0 0 0 0 0.1 0"/>
<feBlend mode="normal" in2="BackgroundImageFix" result="effect1_dropShadow_15_7193"/>
<feBlend mode="normal" in="SourceGraphic" in2="effect1_dropShadow_15_7193" result="shape"/>
</filter>
</defs>
</svg>
