<svg width="90" height="90" viewBox="0 0 90 90" fill="none" xmlns="http://www.w3.org/2000/svg">
<path d="M72.375 29.7V49.0125C72.375 60.5625 65.775 65.5125 55.875 65.5125H22.9125C21.225 65.5125 19.6125 65.3625 18.1125 65.025C17.175 64.875 16.275 64.6125 15.45 64.3125C9.82501 62.2125 6.41251 57.3375 6.41251 49.0125V29.7C6.41251 18.15 13.0125 13.2 22.9125 13.2H55.875C64.275 13.2 70.3125 16.7625 71.925 24.9C72.1875 26.4 72.375 27.9375 72.375 29.7Z" stroke="black" stroke-width="1.5" stroke-miterlimit="10" stroke-linecap="round" stroke-linejoin="round"/>
<path d="M83.6287 40.95V60.2625C83.6287 71.8125 77.0287 76.7625 67.1287 76.7625H34.1662C31.3912 76.7625 28.8787 76.3875 26.7037 75.5625C22.2412 73.9125 19.2037 70.5 18.1162 65.025C19.6162 65.3625 21.2287 65.5125 22.9162 65.5125H55.8787C65.7787 65.5125 72.3787 60.5625 72.3787 49.0125V29.7C72.3787 27.9375 72.2287 26.3625 71.9287 24.9C79.0537 26.4 83.6287 31.425 83.6287 40.95V40.95Z" stroke="black" stroke-width="1.5" stroke-miterlimit="10" stroke-linecap="round" stroke-linejoin="round"/>
<path d="M17.925 31.125V47.625M60.8325 31.125V47.625M39.3675 49.275C41.9931 49.275 44.5112 48.2319 46.3678 46.3753C48.2245 44.5187 49.2675 42.0006 49.2675 39.375C49.2675 36.7493 48.2245 34.2312 46.3678 32.3746C44.5112 30.518 41.9931 29.475 39.3675 29.475C36.7418 29.475 34.2237 30.518 32.3671 32.3746C30.5105 34.2312 29.4675 36.7493 29.4675 39.375C29.4675 42.0006 30.5105 44.5187 32.3671 46.3753C34.2237 48.2319 36.7418 49.275 39.3675 49.275V49.275Z" stroke="black" stroke-width="1.5" stroke-miterlimit="10" stroke-linecap="round" stroke-linejoin="round"/>
</svg>
