<svg width="50" height="50" viewBox="0 0 50 50" fill="none" xmlns="http://www.w3.org/2000/svg">
<path d="M45.8333 25.0001V18.7501C45.8333 8.33342 41.6667 4.16675 31.25 4.16675H18.75C8.33333 4.16675 4.16666 8.33342 4.16666 18.7501V31.2501C4.16666 41.6668 8.33333 45.8334 18.75 45.8334H25" stroke="black" stroke-width="1.5" stroke-linecap="round" stroke-linejoin="round"/>
<path d="M43.6667 37.1666L40.2708 38.3124C39.3333 38.6249 38.5833 39.3541 38.2708 40.3124L37.125 43.7083C36.1458 46.6458 32.0208 46.5833 31.1042 43.6458L27.25 31.2499C26.5 28.7916 28.7708 26.4999 31.2083 27.2708L43.625 31.1249C46.5417 32.0416 46.5833 36.1874 43.6667 37.1666Z" stroke="black" stroke-width="1.5" stroke-linecap="round" stroke-linejoin="round"/>
</svg>
