<svg width="90" height="90" viewBox="0 0 90 90" fill="none" xmlns="http://www.w3.org/2000/svg">
<path d="M63.6375 54.15C68.775 55.0125 74.4375 54.1125 78.4125 51.45C83.7 47.925 83.7 42.15 78.4125 38.625C74.4 35.9625 68.6625 35.0625 63.525 35.9625M26.25 54.15C21.1125 55.0125 15.45 54.1125 11.475 51.45C6.18749 47.925 6.18749 42.15 11.475 38.625C15.4875 35.9625 21.225 35.0625 26.3625 35.9625M67.5 26.85C67.264 26.8125 67.0235 26.8125 66.7875 26.85C64.2849 26.7595 61.9155 25.6995 60.18 23.8941C58.4446 22.0887 57.479 19.6792 57.4875 17.175C57.4875 11.8125 61.8 7.5 67.1625 7.5C69.7285 7.5 72.1893 8.51933 74.0037 10.3337C75.8182 12.1482 76.8375 14.609 76.8375 17.175C76.8306 19.681 75.855 22.0873 74.1147 23.8905C72.3744 25.6938 70.0042 26.7542 67.5 26.85V26.85ZM22.3875 26.85C22.6125 26.8125 22.875 26.8125 23.1 26.85C25.6026 26.7595 27.972 25.6995 29.7075 23.8941C31.4429 22.0887 32.4084 19.6792 32.4 17.175C32.4 11.8125 28.0875 7.5 22.725 7.5C20.159 7.5 17.6981 8.51933 15.8837 10.3337C14.0693 12.1482 13.05 14.609 13.05 17.175C13.0875 22.425 17.2125 26.6625 22.3875 26.85ZM45 54.8625C44.764 54.825 44.5235 54.825 44.2875 54.8625C41.7849 54.772 39.4155 53.712 37.68 51.9066C35.9446 50.1012 34.979 47.6918 34.9875 45.1875C34.9875 39.825 39.3 35.5125 44.6625 35.5125C47.2285 35.5125 49.6893 36.5318 51.5038 38.3462C53.3182 40.1607 54.3375 42.6215 54.3375 45.1875C54.3 50.4375 50.175 54.7125 45 54.8625ZM34.0875 66.675C28.8 70.2 28.8 75.975 34.0875 79.5C40.0875 83.5125 49.9125 83.5125 55.9125 79.5C61.2 75.975 61.2 70.2 55.9125 66.675C49.95 62.7 40.0875 62.7 34.0875 66.675Z" stroke="black" stroke-width="1.5" stroke-linecap="round" stroke-linejoin="round"/>
</svg>
