<svg width="1440" height="454" viewBox="0 0 1440 454" fill="none" xmlns="http://www.w3.org/2000/svg">
<path d="M-5 344.5C107 435.5 177.5 489.5 192.5 368.5C207.5 247.5 73 180.5 110.5 124.5C148 68.4999 157 46.9999 270 46.9999C326.569 46.9999 399.14 476.799 507.5 344.5C550.5 292 622 272.5 550.5 201C466.5 201 540.7 82.1998 591.5 46.9999C655 2.99997 842.815 -11.6283 893.5 46.9999C960.5 124.5 841 277 880.5 400C901.043 463.969 1189.5 490 1264 283C1338.5 76 1376 20.9998 1430 46.9999C1473.2 67.8 1502.67 159.167 1519.5 176.5" stroke="#FFE400" stroke-width="15" stroke-dasharray="12 20"/>
</svg>
